<svg xmlns="http://www.w3.org/2000/svg"
     width="1.03333in" height="0.543333in"
     viewBox="0 0 310 163">
  <path id="Selección"
        fill="#A41C26" stroke="none" stroke-width="1"
        d="M 146.00,3.21
           C 118.61,7.91 96.57,21.15 84.32,47.00
             80.18,55.74 77.12,66.29 77.00,76.00
             77.00,76.00 77.00,85.00 77.00,85.00
             77.05,114.77 96.11,141.33 123.00,153.27
             131.55,157.06 142.63,159.89 152.00,160.00
             165.27,160.15 175.84,158.37 188.00,152.82
             197.76,148.37 206.66,142.01 213.83,134.00
             224.58,121.97 232.81,103.27 233.00,87.00
             233.10,77.77 233.33,71.12 231.10,62.00
             224.92,36.68 206.41,16.55 182.00,7.69
             173.70,4.68 164.83,3.01 156.00,3.21
             156.00,3.21 146.00,3.21 146.00,3.21 Z
           M 148.00,14.29
           C 162.38,12.94 177.59,15.91 190.00,23.46
             226.87,45.91 233.51,98.47 203.00,129.00
             196.69,135.31 191.19,139.52 183.00,143.14
             173.38,147.39 163.47,149.12 153.00,149.00
             100.51,148.39 71.30,89.84 97.45,46.00
             108.84,26.90 126.70,17.54 148.00,14.29 Z
           M 122.00,95.00
           C 122.00,103.97 120.40,116.98 127.21,123.79
             130.85,127.42 134.13,127.93 139.00,128.00
             139.00,128.00 171.00,128.00 171.00,128.00
             176.33,127.93 179.94,127.18 183.61,122.90
             189.42,116.12 188.00,103.52 188.00,95.00
             199.15,94.38 206.16,84.48 201.77,74.00
             200.08,69.95 195.53,65.40 192.58,62.00
             192.58,62.00 173.28,41.00 173.28,41.00
             167.85,34.84 163.98,29.03 155.00,29.03
             146.02,29.03 142.15,34.84 136.72,41.00
             136.72,41.00 117.42,62.00 117.42,62.00
             114.47,65.40 109.92,69.95 108.23,74.00
             103.84,84.48 110.85,94.38 122.00,95.00 Z
           M 154.07,40.54
           C 159.24,40.68 161.54,44.39 164.97,48.00
             164.97,48.00 184.00,69.00 184.00,69.00
             186.28,71.40 191.48,76.45 191.39,79.94
             191.23,86.02 182.28,82.20 178.60,86.43
             176.08,89.33 177.01,101.78 177.00,106.00
             177.00,108.76 177.35,113.18 175.26,115.26
             173.46,117.06 170.36,116.96 168.00,117.00
             168.00,117.00 144.00,117.00 144.00,117.00
             141.55,117.00 137.48,117.24 135.43,115.83
             131.72,113.27 133.01,99.50 133.00,95.00
             132.99,90.88 133.50,86.64 128.94,84.74
             125.74,83.40 119.84,84.98 118.74,80.85
             117.73,77.06 123.64,71.48 126.00,69.00
             126.00,69.00 143.17,50.00 143.17,50.00
             146.34,46.49 149.62,42.29 154.07,40.54 Z" />
</svg>
